<svg xmlns="http://www.w3.org/2000/svg" xmlns:xlink="http://www.w3.org/1999/xlink" viewBox="0,0,256,256" width="480px" height="480px"><g fill="none" fill-rule="nonzero" stroke="none" stroke-width="1" stroke-linecap="butt" stroke-linejoin="miter" stroke-miterlimit="10" stroke-dasharray="" stroke-dashoffset="0" font-family="none" font-weight="none" font-size="none" text-anchor="none" style="mix-blend-mode: normal"><g transform="scale(5.33333,5.33333)"><path d="M24,4l-17,10v20l17,10l17,-10v-20z" fill-opacity="0" fill="#ffffff"></path><path d="M23.5,24.5v9l-8.5,-4.5v-9.5z" fill="#0277bd"></path><path d="M24.5,24.5v9l8.5,-4.5v-9.5z" fill="#0277bd"></path><path d="M24,23.5l-8.5,-5l8.5,-4.5l8.5,4.5z" fill="#0277bd"></path><g fill="#81d4fa"><path d="M23.5,7v6l-9,5l-5,-3z"></path><path d="M23.5,41v-6l-9,-5l-5,3z"></path><path d="M14,19l-5,-3v16l5,-3z"></path><path d="M24.5,7v6l9,5l5,-3z"></path><path d="M24.5,41v-6l9,-5l5,3z"></path><path d="M34,19l5,-3v16l-5,-3z"></path></g></g></g></svg>